<?xml version="1.0" encoding="UTF-8" standalone="no" ?>
<!DOCTYPE svg PUBLIC "-//W3C//DTD SVG 1.1//EN" "http://www.w3.org/Graphics/SVG/1.1/DTD/svg11.dtd">
<svg xmlns="http://www.w3.org/2000/svg" xmlns:xlink="http://www.w3.org/1999/xlink" version="1.1" width="1280" height="1024" viewBox="0 0 1280 1024" xml:space="preserve">
<desc>Created with Fabric.js 3.6.3</desc>
<defs>
</defs>
<g transform="matrix(1.966205837173579 0 0 1.966205837173579 640.2456813819579 512.1966205837175)" id="background-logo"  >
<rect style="stroke: none; stroke-width: 1; stroke-dasharray: none; stroke-linecap: butt; stroke-dashoffset: 0; stroke-linejoin: miter; stroke-miterlimit: 4; fill: rgb(15,15,15); fill-rule: nonzero; opacity: 1;"  paint-order="stroke"  x="-325" y="-260" rx="0" ry="0" width="650" height="520" />
</g>
<g transform="matrix(1.9699870022450672 0 0 1.9699870022450672 640.2456813819579 395.87547828120637)" id="logo-logo"  >
<g style=""  paint-order="stroke"   >
		<g transform="matrix(1.2485131559256284 0 0 1.2485131559256284 0 0)"  >
<g style=""  paint-order="stroke"   >
		<g transform="matrix(1 0 0 1 0 0)"  >
<linearGradient id="SVGID_1_433700" gradientUnits="userSpaceOnUse" gradientTransform="matrix(1 0 0 1 -100 -100)"  x1="0" y1="0" x2="0" y2="201">
<stop offset="0%" style="stop-color:rgb(91,36,122);stop-opacity: 1"/>
<stop offset="100%" style="stop-color:rgb(27,206,223);stop-opacity: 1"/>
</linearGradient>
<polygon style="stroke: none; stroke-width: 1; stroke-dasharray: none; stroke-linecap: butt; stroke-dashoffset: 0; stroke-linejoin: miter; stroke-miterlimit: 4; fill: url(#SVGID_1_433700); fill-rule: nonzero; opacity: 1;"  paint-order="stroke"  points="100,100 0,100 0,95.12 95.12,95.12 95.12,-95.12 -95.12,-95.12 -95.12,0 -100,0 -100,-100 100,-100 100,100 " />
</g>
</g>
</g>
</g>
</g>
<g transform="matrix(1.9699870022450672 0 0 1.9699870022450672 638.8889105486245 786.9588421699625)" id="text-logo-path"  >
<path style="stroke: rgb(255,255,255); stroke-width: 0; stroke-dasharray: none; stroke-linecap: butt; stroke-dashoffset: 0; stroke-linejoin: miter; stroke-miterlimit: 10; fill: rgb(43,164,198); fill-rule: nonzero; opacity: 1;"  paint-order="stroke"  transform=" translate(-140.51999999999998, 29.57)" d="M 21.86 0 L 6.35 0 L 6.35 -5.47 L 10.93 -5.47 L 10.93 -53.68 L 6.35 -53.68 L 6.35 -59.14 L 21.86 -59.14 L 21.86 -53.68 L 17.28 -53.68 L 17.28 -5.47 L 21.86 -5.47 L 21.86 0 Z M 43.63 0 L 37.28 0 L 37.28 -59.14 L 39.99 -59.14 L 42.26 -53.23 Q 46.61 -60.52 54.39 -60.52 L 54.39 -60.52 Q 67.76 -60.52 67.76 -47.77 L 67.76 -47.77 L 67.76 0 L 61.41 0 L 61.41 -47.77 Q 61.41 -51.23 59.9 -53.14 Q 58.39 -55.05 54.39 -55.05 Q 50.39 -55.05 47.01 -51.97 Q 43.63 -48.88 43.63 -45.94 L 43.63 -45.94 L 43.63 0 Z M 83.67 -11.38 L 83.67 -11.38 L 83.67 -47.77 Q 83.67 -53.85 87.4 -57.19 Q 91.13 -60.52 98.6 -60.52 Q 106.06 -60.52 109.88 -57.19 Q 113.71 -53.85 113.71 -47.77 L 113.71 -47.77 L 113.71 -39.15 L 107.35 -39.15 L 107.35 -47.77 Q 107.35 -55.05 98.69 -55.05 Q 90.02 -55.05 90.02 -47.77 L 90.02 -47.77 L 90.02 -11.38 Q 90.02 -4.09 98.69 -4.09 Q 107.35 -4.09 107.35 -11.38 L 107.35 -11.38 L 107.35 -16.4 L 113.71 -16.4 L 113.71 -11.38 Q 113.71 -5.29 109.97 -1.96 Q 106.24 1.38 98.78 1.38 Q 91.31 1.38 87.49 -1.96 Q 83.67 -5.29 83.67 -11.38 Z M 128.24 -11.38 L 128.24 -11.38 L 128.24 -47.77 Q 128.24 -53.85 132.1 -57.19 Q 135.97 -60.52 143.65 -60.52 Q 151.34 -60.52 155.25 -57.19 Q 159.16 -53.85 159.16 -47.77 L 159.16 -47.77 L 159.16 -11.38 Q 159.16 -5.29 155.3 -1.96 Q 151.43 1.38 143.74 1.38 Q 136.06 1.38 132.15 -1.96 Q 128.24 -5.29 128.24 -11.38 Z M 134.59 -47.77 L 134.59 -11.38 Q 134.59 -4.09 143.7 -4.09 Q 152.81 -4.09 152.81 -11.38 L 152.81 -11.38 L 152.81 -47.77 Q 152.81 -55.05 143.7 -55.05 Q 134.59 -55.05 134.59 -47.77 L 134.59 -47.77 Z M 182.36 0 L 176 0 L 176 -59.14 L 178.71 -59.14 L 180.98 -53.32 Q 182.89 -56.61 186 -58.56 Q 189.11 -60.52 192.75 -60.52 L 192.75 -60.52 Q 201.95 -60.52 204.48 -53.85 L 204.48 -53.85 Q 208.84 -60.52 215.95 -60.52 L 215.95 -60.52 Q 228.79 -60.52 228.79 -47.77 L 228.79 -47.77 L 228.79 0 L 222.39 0 L 222.39 -47.77 Q 222.39 -55.05 215.86 -55.05 L 215.86 -55.05 Q 212.04 -55.05 208.79 -51.97 Q 205.55 -48.88 205.55 -45.94 L 205.55 -45.94 L 205.55 0 L 199.2 0 L 199.2 -47.77 Q 199.2 -55.05 192.66 -55.05 L 192.66 -55.05 Q 188.84 -55.05 185.6 -52.1 Q 182.36 -49.14 182.36 -46.21 L 182.36 -46.21 L 182.36 0 Z M 244.65 -11.38 L 244.65 -11.38 L 244.65 -47.77 Q 244.65 -53.85 248.38 -57.19 Q 252.12 -60.52 259.58 -60.52 Q 267.05 -60.52 270.87 -57.19 Q 274.69 -53.85 274.69 -47.77 L 274.69 -47.77 L 274.69 -27.77 L 251.01 -27.77 L 251.01 -11.38 Q 251.01 -4.09 259.67 -4.09 Q 268.33 -4.09 268.33 -11.38 L 268.33 -11.38 L 268.33 -16.4 L 274.69 -16.4 L 274.69 -11.38 Q 274.69 -5.29 270.96 -1.96 Q 267.22 1.38 259.76 1.38 Q 252.29 1.38 248.47 -1.96 Q 244.65 -5.29 244.65 -11.38 Z M 251.01 -47.77 L 251.01 -33.24 L 268.33 -33.24 L 268.33 -47.77 Q 268.33 -55.05 259.67 -55.05 Q 251.01 -55.05 251.01 -47.77 L 251.01 -47.77 Z" stroke-linecap="round" />
</g>
<g transform="matrix(1.9699870022450672 0 0 1.9699870022450672 640.3596674462967 392.8064659051884)" id="tagline-3a78d944-c0db-44d4-8ad5-60158c925687-logo-path"  >
<linearGradient id="SVGID_4_433703" gradientUnits="userSpaceOnUse" gradientTransform="matrix(1 0 0 1 16.550000000000004 -154.03)"  x1="0" y1="0" x2="0" y2="268">
<stop offset="0%" style="stop-color:rgb(91,36,122);stop-opacity: 1"/>
<stop offset="100%" style="stop-color:rgb(27,206,223);stop-opacity: 1"/>
</linearGradient>
<path style="stroke: rgb(255,255,255); stroke-width: 0; stroke-dasharray: none; stroke-linecap: butt; stroke-dashoffset: 0; stroke-linejoin: miter; stroke-miterlimit: 4; fill: url(#SVGID_4_433703); fill-rule: nonzero; opacity: 1;"  paint-order="stroke"  transform=" translate(-36.745000000000005, 77.015)" d="M 56.94 0 L 16.55 0 L 16.55 -14.23 L 28.47 -14.23 L 28.47 -139.79 L 16.55 -139.79 L 16.55 -154.03 L 56.94 -154.03 L 56.94 -139.79 L 45.02 -139.79 L 45.02 -14.23 L 56.94 -14.23 L 56.94 0 Z" stroke-linecap="round" />
</g>
</svg>